<svg xmlns="http://www.w3.org/2000/svg" viewBox="0 0 676.77 144.25"><defs><style>.cls-1{fill:#fe3b1f;}.cls-2{fill:#fff;}</style></defs><title>marca-con-bajadaRecurso 4</title><g id="Capa_2" data-name="Capa 2"><g id="Capa_1-2" data-name="Capa 1"><path class="cls-1" d="M184.56,40.37A40.37,40.37,0,0,0,144.19,0H63.51l80.74,80.74A40.33,40.33,0,0,0,184.56,40.37Z"/><polygon class="cls-1" points="144.25 80.74 80.74 80.74 80.74 144.25 207.79 144.25 144.25 80.74"/><polygon class="cls-2" points="144.25 80.74 63.51 0 63.51 57.2 63.51 63.51 57.55 63.51 0 63.51 80.74 144.25 80.74 87.05 80.74 80.74 86.7 80.74 144.25 80.74"/><path class="cls-2" d="M320.74,27.44A21.48,21.48,0,0,0,308.46,24a23.19,23.19,0,0,0-12,3.08,21.58,21.58,0,0,0-8.2,8.65,27.29,27.29,0,0,0-3,13.09,24.32,24.32,0,0,0,3,12.22,22,22,0,0,0,8.42,8.37,24.86,24.86,0,0,0,12.43,3A22.61,22.61,0,0,0,321.36,69a20.36,20.36,0,0,0,8.18-9.77L318,55.91a9.45,9.45,0,0,1-3.7,4.29,10.84,10.84,0,0,1-5.82,1.49q-5.4,0-8.18-3.5a13.34,13.34,0,0,1-2.58-6.7h32.22A31.79,31.79,0,0,0,328.22,37,19.91,19.91,0,0,0,320.74,27.44ZM309,34.07c3.37,0,5.8,1,7.29,3.08a12.89,12.89,0,0,1,2,5.76H298a12.83,12.83,0,0,1,2.27-5.25Q303.06,34.06,309,34.07Z"/><path class="cls-2" d="M407.53,25.21a19.31,19.31,0,0,0-4,.72,14.67,14.67,0,0,0-3.61,1.59,12.5,12.5,0,0,0-3.66,3.23,16,16,0,0,0-1.27,2v-7.4h-10.2v45.9h11.64V47.75a14.65,14.65,0,0,1,.72-4.74,10.26,10.26,0,0,1,5.57-6.14,12.77,12.77,0,0,1,4.57-1.17,12,12,0,0,1,4.44.41V25.31A21.45,21.45,0,0,0,407.53,25.21Z"/><path class="cls-2" d="M448.6,27.44A21.46,21.46,0,0,0,436.32,24a23.21,23.21,0,0,0-12,3.08,21.64,21.64,0,0,0-8.2,8.65,27.4,27.4,0,0,0-3,13.09,24.32,24.32,0,0,0,3,12.22,22,22,0,0,0,8.42,8.37,24.88,24.88,0,0,0,12.43,3A22.61,22.61,0,0,0,449.22,69a20.36,20.36,0,0,0,8.18-9.77l-11.56-3.32a9.45,9.45,0,0,1-3.7,4.29,10.81,10.81,0,0,1-5.82,1.49q-5.4,0-8.18-3.5a13.43,13.43,0,0,1-2.58-6.7h32.22A31.79,31.79,0,0,0,456.08,37,19.91,19.91,0,0,0,448.6,27.44Zm-11.77,6.63c3.37,0,5.8,1,7.29,3.08a12.65,12.65,0,0,1,2,5.76H425.87a13,13,0,0,1,2.27-5.25Q430.92,34.06,436.83,34.07Z"/><polygon class="cls-2" points="462.39 35.34 482.37 35.34 459.84 69.77 459.84 71.21 499.37 71.21 499.37 61.18 477.78 61.18 500.22 26.76 500.22 25.31 462.39 25.31 462.39 35.34"/><path class="cls-2" d="M535.86,27.44A21.52,21.52,0,0,0,523.57,24a23.15,23.15,0,0,0-12,3.08,21.67,21.67,0,0,0-8.21,8.65,27.4,27.4,0,0,0-3,13.09,24.22,24.22,0,0,0,3,12.22,22,22,0,0,0,8.41,8.37,24.91,24.91,0,0,0,12.43,3A22.59,22.59,0,0,0,536.47,69a20.25,20.25,0,0,0,8.18-9.77l-11.56-3.32a9.49,9.49,0,0,1-3.69,4.29,10.87,10.87,0,0,1-5.83,1.49q-5.39,0-8.18-3.5a13.43,13.43,0,0,1-2.57-6.7H545A31.93,31.93,0,0,0,543.34,37,20,20,0,0,0,535.86,27.44Zm-11.78,6.63c3.38,0,5.8,1,7.29,3.08a12.65,12.65,0,0,1,2,5.76h-20.2a12.83,12.83,0,0,1,2.26-5.25Q518.18,34.06,524.08,34.07Z"/><path class="cls-2" d="M591.94,36.26a19.33,19.33,0,0,0-2.7-5.85,14.5,14.5,0,0,0-5.3-4.63A18.45,18.45,0,0,0,575.15,24,19.87,19.87,0,0,0,564,26.89a18.71,18.71,0,0,0-3.68,3.16V25.31H550v45.9h11.73V47.92a20.54,20.54,0,0,1,.95-6.88,9.71,9.71,0,0,1,2.45-3.93,7.74,7.74,0,0,1,3.19-1.81,12.07,12.07,0,0,1,3.18-.47,8.82,8.82,0,0,1,5.72,1.66,9.35,9.35,0,0,1,2.91,4.12,17.8,17.8,0,0,1,1.06,4.91c.12,1.63.17,3,.17,4V71.21h11.73V45.46c0-.77-.05-2-.17-3.66A29.82,29.82,0,0,0,591.94,36.26Z"/><path class="cls-2" d="M615.16,13.3H603.6v12h-7.82v8.93h7.82V51.75c0,2.75,0,5.2.09,7.37a14.08,14.08,0,0,0,1.78,6.4,10.89,10.89,0,0,0,5.46,4.86A22.2,22.2,0,0,0,619.09,72a44.56,44.56,0,0,0,9.33-.79v-9.6A37.92,37.92,0,0,1,621,62a5.81,5.81,0,0,1-4.88-2.64,6.68,6.68,0,0,1-.87-3.42c-.05-1.43-.07-3-.07-4.82V34.24h13.26V25.31H615.16Z"/><path class="cls-2" d="M673.83,35.7a21.6,21.6,0,0,0-8.18-8.56,25.31,25.31,0,0,0-24.2,0,21.62,21.62,0,0,0-8.2,8.52,25.92,25.92,0,0,0-3,12.64,26.31,26.31,0,0,0,2.91,12.56,21.6,21.6,0,0,0,8.14,8.57,25.41,25.41,0,0,0,24.29,0,21.7,21.7,0,0,0,8.2-8.55,26.06,26.06,0,0,0,3-12.6A26.09,26.09,0,0,0,673.83,35.7ZM661.78,57.93q-2.73,3.76-8.3,3.76-5.4,0-8.19-3.63t-2.78-9.8a19.32,19.32,0,0,1,1.17-7,10.09,10.09,0,0,1,3.59-4.72,10.59,10.59,0,0,1,6.21-1.7c3.65,0,6.41,1.22,8.26,3.66s2.79,5.69,2.79,9.77A16,16,0,0,1,661.78,57.93Z"/><path class="cls-2" d="M277,44a19.38,19.38,0,0,0,3.82-12.1,21.61,21.61,0,0,0-1.65-8.59A15.26,15.26,0,0,0,274,16.88a19.9,19.9,0,0,0-9-3.32,22.11,22.11,0,0,0-2.7-.26q-1.5-.06-2.4-.06H234.1v58h11.56V50.47h12.9l10.05,20.74H281.7l-11-22.55A14.73,14.73,0,0,0,277,44Zm-31.37-4.28V24h13.77c.6,0,1.25,0,2,.07a12.19,12.19,0,0,1,1.95.28A7.39,7.39,0,0,1,267,26.17,6.77,6.77,0,0,1,268.72,29a8.86,8.86,0,0,1,0,5.81A6.86,6.86,0,0,1,267,37.55a7.38,7.38,0,0,1-3.62,1.77,11.12,11.12,0,0,1-1.95.29c-.71,0-1.36.07-2,.07Z"/><path class="cls-2" d="M376,35.79a21.17,21.17,0,0,0-7.59-8.61A20.71,20.71,0,0,0,356.88,24c-4.35,0-10.25,3.15-11.84,4.74l0-.93V25.31h-10.2V87.59h11.65v-19c1.22,1.23,6.4,3.92,11,3.92a19.47,19.47,0,0,0,11.09-3.19A21.33,21.33,0,0,0,376,60.63a28,28,0,0,0,2.66-12.37A27.78,27.78,0,0,0,376,35.79ZM365.26,55.3a11,11,0,0,1-3.53,5,9.58,9.58,0,0,1-6.12,1.87,10,10,0,0,1-6.18-1.74,9.58,9.58,0,0,1-3.34-4.89,23.68,23.68,0,0,1-1-7.31,23.77,23.77,0,0,1,1-7.31,9.9,9.9,0,0,1,3.25-4.88,9.2,9.2,0,0,1,5.85-1.75,10.2,10.2,0,0,1,6.35,1.89,11.13,11.13,0,0,1,3.68,5.06,19.8,19.8,0,0,1,1.19,7A20.67,20.67,0,0,1,365.26,55.3Z"/><polygon class="cls-2" points="234.39 97.7 234.1 97.7 234.1 97.99 234.1 117.77 247.12 117.77 247.41 117.77 247.41 117.48 247.41 114.04 247.41 113.75 247.12 113.75 238.37 113.75 238.37 109.32 245.49 109.32 245.78 109.32 245.78 109.03 245.78 105.59 245.78 105.3 245.49 105.3 238.37 105.3 238.37 101.71 247.12 101.71 247.41 101.71 247.41 101.42 247.41 97.99 247.41 97.7 247.12 97.7 234.39 97.7"/><path class="cls-2" d="M269.09,107.46a7.83,7.83,0,0,0-1.83-1q-.94-.33-1.71-.54l-3.38-.92a9.59,9.59,0,0,1-1.18-.39,2.59,2.59,0,0,1-.89-.58,1.11,1.11,0,0,1-.31-.83,1.36,1.36,0,0,1,.4-1,2.71,2.71,0,0,1,1.13-.69,4.15,4.15,0,0,1,1.37-.23h.15a4.59,4.59,0,0,1,1.59.35,3.61,3.61,0,0,1,1.28.91,3.29,3.29,0,0,1,.73,1.47l.06.27.27,0,4-.68.31,0-.08-.3a7.89,7.89,0,0,0-1.6-3.21,7.22,7.22,0,0,0-2.76-2,10,10,0,0,0-3.71-.71h-.09a10.1,10.1,0,0,0-3.67.64,6.16,6.16,0,0,0-2.77,2,5.56,5.56,0,0,0-1,3.44,5.25,5.25,0,0,0,.5,2.44,4.52,4.52,0,0,0,1.24,1.56,6.19,6.19,0,0,0,1.53.9,13.6,13.6,0,0,0,1.35.46l5.06,1.49a4.66,4.66,0,0,1,.88.37,1.86,1.86,0,0,1,.49.39,1.31,1.31,0,0,1,.24.43,1.56,1.56,0,0,1,.08.48,1.61,1.61,0,0,1-.47,1.17,3.19,3.19,0,0,1-1.28.76,5.26,5.26,0,0,1-1.67.27,4.56,4.56,0,0,1-2.73-.85,4,4,0,0,1-1.57-2.42l-.06-.25-.26,0-3.84.56-.29,0,0,.28a7.33,7.33,0,0,0,4.44,5.82,9.84,9.84,0,0,0,4,.79,11.31,11.31,0,0,0,3-.39,8.68,8.68,0,0,0,2.6-1.18,6.09,6.09,0,0,0,1.85-2,5.89,5.89,0,0,0,.7-2.89,5.18,5.18,0,0,0-.59-2.58A5,5,0,0,0,269.09,107.46Z"/><polygon class="cls-2" points="277.36 97.7 277.07 97.7 277.07 97.99 277.07 101.42 277.07 101.71 277.36 101.71 283.22 101.71 283.22 117.48 283.22 117.77 283.51 117.77 287.19 117.77 287.48 117.77 287.48 117.48 287.48 101.71 293.33 101.71 293.62 101.71 293.62 101.42 293.62 97.99 293.62 97.7 293.33 97.7 277.36 97.7"/><path class="cls-2" d="M312.77,97.7h-.29v12.44a4.21,4.21,0,0,1-.3,1.62,3.62,3.62,0,0,1-.82,1.26,3.89,3.89,0,0,1-1.24.82,4.11,4.11,0,0,1-1.55.29,4.07,4.07,0,0,1-1.52-.29,3.56,3.56,0,0,1-1.24-.81,3.72,3.72,0,0,1-.84-1.25,4.32,4.32,0,0,1-.3-1.64V97.69h-.29l-3.74,0h-.29v12.44a8.36,8.36,0,0,0,1,4.22,7.28,7.28,0,0,0,2.9,2.79,9.75,9.75,0,0,0,8.56,0,7.22,7.22,0,0,0,2.9-2.79,8.36,8.36,0,0,0,1-4.22V97.7h-4Z"/><path class="cls-2" d="M338.25,99.51a7.78,7.78,0,0,0-4.14-1.7,12.64,12.64,0,0,0-1.41-.1h-7.55v20.07h6.59l1,0q.72,0,1.41-.09a7.84,7.84,0,0,0,4.14-1.71,8.83,8.83,0,0,0,2.57-3.55,12.83,12.83,0,0,0,0-9.34A8.9,8.9,0,0,0,338.25,99.51Zm-8.79,2.23h3.27a5.53,5.53,0,0,1,1.06.12,3.34,3.34,0,0,1,1.89,1.06,5.52,5.52,0,0,1,1.15,2.11,9.16,9.16,0,0,1,.39,2.69,9.66,9.66,0,0,1-.37,2.63,5.78,5.78,0,0,1-1.14,2.14,3.32,3.32,0,0,1-1.91,1.09,6.78,6.78,0,0,1-1.08.11l-1,0h-2.28Z"/><polygon class="cls-2" points="350.07 97.7 349.78 97.7 349.78 97.99 349.78 117.48 349.78 117.77 350.07 117.77 353.75 117.77 354.04 117.77 354.04 117.48 354.04 97.99 354.04 97.7 353.75 97.7 350.07 97.7"/><path class="cls-2" d="M376.51,98.6a10.94,10.94,0,0,0-10.38,0,8.82,8.82,0,0,0-3.37,3.68,13.18,13.18,0,0,0,0,10.9,8.7,8.7,0,0,0,3.37,3.68,10.94,10.94,0,0,0,10.38,0,8.76,8.76,0,0,0,3.37-3.68,13.18,13.18,0,0,0,0-10.9A8.88,8.88,0,0,0,376.51,98.6Zm-2.27,14.78a4.91,4.91,0,0,1-2.8.75h-.12a5.33,5.33,0,0,1-2.93-.81,4.81,4.81,0,0,1-1.74-2.18,9,9,0,0,1-.59-3.41,9.24,9.24,0,0,1,.59-3.44,4.84,4.84,0,0,1,1.74-2.21,5,5,0,0,1,2.81-.75h.11a5.22,5.22,0,0,1,2.93.8,4.68,4.68,0,0,1,1.74,2.18,8.81,8.81,0,0,1,.6,3.41,9,9,0,0,1-.6,3.44A4.71,4.71,0,0,1,374.24,113.38Z"/><path class="cls-2" d="M404.61,102.11a5.21,5.21,0,0,1,2.93-.77,4.64,4.64,0,0,1,4.86,3.53l.09.27.27-.08,3.71-1,.29-.08-.1-.29A9.12,9.12,0,0,0,413.35,99a9.66,9.66,0,0,0-5.81-1.72,9.93,9.93,0,0,0-5.19,1.31,8.91,8.91,0,0,0-3.38,3.68,13.28,13.28,0,0,0,0,10.9,8.79,8.79,0,0,0,3.38,3.68,9.93,9.93,0,0,0,5.19,1.31,9.66,9.66,0,0,0,5.81-1.72,9.12,9.12,0,0,0,3.31-4.65l.1-.29-.29-.08-3.71-1-.27-.07-.09.27a4.67,4.67,0,0,1-4.86,3.53,5.16,5.16,0,0,1-2.93-.78,4.72,4.72,0,0,1-1.76-2.2,10,10,0,0,1,0-6.84A4.77,4.77,0,0,1,404.61,102.11Z"/><path class="cls-2" d="M436.54,110.39a5.07,5.07,0,0,0,1.88-1.61,7.42,7.42,0,0,0,1.27-4.35,8.44,8.44,0,0,0-.55-3.08A5.5,5.5,0,0,0,437.41,99a6.36,6.36,0,0,0-3-1.21,5.69,5.69,0,0,0-.89-.09c-.33,0-.59,0-.78,0h-8.52v20.07h4.26v-6.61h3.64l3.12,6.44.08.17h4.81l-.2-.42Zm-8.06-8.68h4.1l.6,0a3.1,3.1,0,0,1,.56.1,2,2,0,0,1,1,.59,2.46,2.46,0,0,1,.5,1,3.68,3.68,0,0,1,0,2.08,2.46,2.46,0,0,1-.5,1,2,2,0,0,1-1,.59,3.39,3.39,0,0,1-.57.1l-.6,0h-4.1Z"/><polygon class="cls-2" points="447.79 97.7 447.5 97.7 447.5 97.99 447.5 117.48 447.5 117.77 447.79 117.77 460.51 117.77 460.8 117.77 460.8 117.48 460.8 114.04 460.8 113.75 460.51 113.75 451.76 113.75 451.76 109.32 458.89 109.32 459.18 109.32 459.18 109.03 459.18 105.59 459.18 105.3 458.89 105.3 451.76 105.3 451.76 101.71 460.51 101.71 460.8 101.71 460.8 101.42 460.8 97.99 460.8 97.7 460.51 97.7 447.79 97.7"/><path class="cls-2" d="M479.28,97.9l-.07-.2h-5.92l-.06.2-6,19.49-.11.38h4.39l.07-.21,1.17-3.85h6.91l1.19,3.85.06.21h4.4l-.12-.38Zm-.82,11.79H474l2.21-7.26Z"/><polygon class="cls-2" points="489.29 97.7 489 97.7 489 97.99 489 101.42 489 101.71 489.29 101.71 495.14 101.71 495.14 117.48 495.14 117.77 495.43 117.77 499.11 117.77 499.4 117.77 499.4 117.48 499.4 101.71 505.26 101.71 505.55 101.71 505.55 101.42 505.55 97.99 505.55 97.7 505.26 97.7 489.29 97.7"/><polygon class="cls-2" points="512.84 97.7 512.55 97.7 512.55 97.99 512.55 117.48 512.55 117.77 512.84 117.77 516.52 117.77 516.81 117.77 516.81 117.48 516.81 97.99 516.81 97.7 516.52 97.7 512.84 97.7"/><polygon class="cls-2" points="537.58 97.7 537.36 97.7 537.3 97.9 532.63 113.02 528.03 97.9 527.97 97.7 527.75 97.7 523.96 97.7 523.57 97.7 523.68 98.07 529.64 117.56 529.7 117.77 529.92 117.77 535.41 117.77 535.63 117.77 535.69 117.56 541.64 98.07 541.76 97.7 541.37 97.7 537.58 97.7"/><path class="cls-2" d="M564.93,102.28a8.91,8.91,0,0,0-3.38-3.68,10.94,10.94,0,0,0-10.38,0,8.88,8.88,0,0,0-3.37,3.68,13.28,13.28,0,0,0,0,10.9,8.76,8.76,0,0,0,3.37,3.68,10.94,10.94,0,0,0,10.38,0,8.79,8.79,0,0,0,3.38-3.68,13.28,13.28,0,0,0,0-10.9Zm-5.64,11.1a5,5,0,0,1-2.81.75h-.11a5.3,5.3,0,0,1-2.93-.81,4.68,4.68,0,0,1-1.74-2.18,8.81,8.81,0,0,1-.6-3.41,9,9,0,0,1,.6-3.44,4.77,4.77,0,0,1,1.74-2.21,5,5,0,0,1,2.81-.75h.11a5.24,5.24,0,0,1,2.93.8,4.74,4.74,0,0,1,1.74,2.18,9,9,0,0,1,.59,3.41,9.24,9.24,0,0,1-.59,3.44A4.77,4.77,0,0,1,559.29,113.38Z"/></g></g></svg>