<svg xmlns="http://www.w3.org/2000/svg" viewBox="0 0 617.59 103.3"><defs><style>.cls-1{fill:#fe3b1f;}.cls-2{fill:#f6f6f6;}</style></defs><title>marca-barra-superiorRecurso 1</title><g id="Capa_2" data-name="Capa 2"><g id="Capa_1-2" data-name="Capa 1"><path class="cls-1" d="M132.17,28.91A28.91,28.91,0,0,0,103.26,0H45.48L103.3,57.82A28.87,28.87,0,0,0,132.17,28.91Z"/><polygon class="cls-1" points="103.3 57.82 57.82 57.82 57.82 103.3 148.8 103.3 103.3 57.82"/><polygon class="cls-2" points="103.3 57.82 45.48 0 45.48 40.97 45.48 45.48 41.21 45.48 0 45.48 57.82 103.3 57.82 62.34 57.82 57.82 62.09 57.82 103.3 57.82"/><path class="cls-2" d="M261.56,34.78a21.56,21.56,0,0,0-12.28-3.4,23.19,23.19,0,0,0-12,3.09,21.62,21.62,0,0,0-8.2,8.64,27.34,27.34,0,0,0-3,13.09,24.3,24.3,0,0,0,3,12.22,21.94,21.94,0,0,0,8.42,8.38,24.85,24.85,0,0,0,12.43,3,22.69,22.69,0,0,0,12.22-3.48,20.34,20.34,0,0,0,8.18-9.78L258.8,63.26a9.45,9.45,0,0,1-3.7,4.29A10.93,10.93,0,0,1,249.28,69q-5.4,0-8.18-3.51a13.3,13.3,0,0,1-2.58-6.69h32.22A31.79,31.79,0,0,0,269,44.35,20,20,0,0,0,261.56,34.78Zm-11.77,6.63q5.06,0,7.29,3.09a12.84,12.84,0,0,1,2,5.75H238.83A12.85,12.85,0,0,1,241.1,45Q243.88,41.41,249.79,41.41Z"/><path class="cls-2" d="M348.35,32.55a19.31,19.31,0,0,0-4,.72,15.08,15.08,0,0,0-3.61,1.6A12.5,12.5,0,0,0,337,38.1a16.71,16.71,0,0,0-1.27,1.95V32.66h-10.2v45.9h11.64V55.1a14.57,14.57,0,0,1,.72-4.74,10.46,10.46,0,0,1,2.13-3.65,10.26,10.26,0,0,1,3.44-2.49,12.77,12.77,0,0,1,4.57-1.17,12,12,0,0,1,4.44.4V32.66A21.46,21.46,0,0,0,348.35,32.55Z"/><path class="cls-2" d="M389.42,34.78a21.54,21.54,0,0,0-12.28-3.4,23.22,23.22,0,0,0-12,3.09,21.62,21.62,0,0,0-8.2,8.64,27.46,27.46,0,0,0-3,13.09,24.29,24.29,0,0,0,3,12.22,21.94,21.94,0,0,0,8.42,8.38,24.88,24.88,0,0,0,12.43,3A22.69,22.69,0,0,0,390,76.35a20.34,20.34,0,0,0,8.18-9.78l-11.56-3.31a9.45,9.45,0,0,1-3.7,4.29A10.9,10.9,0,0,1,377.14,69c-3.6,0-6.32-1.17-8.18-3.51a13.39,13.39,0,0,1-2.58-6.69H398.6a31.79,31.79,0,0,0-1.7-14.49A20,20,0,0,0,389.42,34.78Zm-11.77,6.63q5.06,0,7.29,3.09a12.6,12.6,0,0,1,2,5.75H366.69A13,13,0,0,1,369,45Q371.75,41.41,377.65,41.41Z"/><polygon class="cls-2" points="403.21 42.69 423.19 42.69 400.67 77.11 400.67 78.56 440.19 78.56 440.19 68.53 418.6 68.53 441.04 34.1 441.04 32.66 403.21 32.66 403.21 42.69"/><path class="cls-2" d="M476.68,34.78a21.59,21.59,0,0,0-12.29-3.4,23.16,23.16,0,0,0-12,3.09,21.64,21.64,0,0,0-8.21,8.64,27.46,27.46,0,0,0-3,13.09,24.19,24.19,0,0,0,3,12.22,21.91,21.91,0,0,0,8.41,8.38,24.91,24.91,0,0,0,12.43,3,22.66,22.66,0,0,0,12.22-3.48,20.23,20.23,0,0,0,8.18-9.78l-11.56-3.31a9.49,9.49,0,0,1-3.69,4.29A11,11,0,0,1,464.39,69q-5.38,0-8.18-3.51a13.39,13.39,0,0,1-2.57-6.69h32.22a31.93,31.93,0,0,0-1.7-14.49A20,20,0,0,0,476.68,34.78ZM464.9,41.41q5.07,0,7.29,3.09a12.6,12.6,0,0,1,2,5.75H454A12.84,12.84,0,0,1,456.21,45Q459,41.41,464.9,41.41Z"/><path class="cls-2" d="M532.76,43.6a19.39,19.39,0,0,0-2.7-5.84,14.55,14.55,0,0,0-5.29-4.63A18.52,18.52,0,0,0,516,31.3a20,20,0,0,0-11.2,2.93,19.1,19.1,0,0,0-3.68,3.17V32.66H490.81v45.9h11.73V55.27a20.61,20.61,0,0,1,.95-6.89,9.85,9.85,0,0,1,2.45-3.93,7.83,7.83,0,0,1,3.19-1.8,12.07,12.07,0,0,1,3.18-.47A8.76,8.76,0,0,1,518,43.84,9.35,9.35,0,0,1,520.94,48,17.72,17.72,0,0,1,522,52.87c.12,1.63.17,3,.17,4V78.56H533.9V52.8c0-.76,0-2-.17-3.65A30.05,30.05,0,0,0,532.76,43.6Z"/><path class="cls-2" d="M556,20.65H544.42v12H536.6v8.92h7.82V59.09q0,4.13.09,7.38a14,14,0,0,0,1.78,6.39,10.91,10.91,0,0,0,5.46,4.87,22.41,22.41,0,0,0,8.16,1.62,45.25,45.25,0,0,0,9.33-.79V69a37.16,37.16,0,0,1-7.44.34,5.82,5.82,0,0,1-4.88-2.63,6.68,6.68,0,0,1-.87-3.42c0-1.43-.07-3-.07-4.83V41.58h13.26V32.66H556Z"/><path class="cls-2" d="M614.65,43.05a21.6,21.6,0,0,0-8.18-8.56,25.27,25.27,0,0,0-24.2-.05,21.58,21.58,0,0,0-8.2,8.53,25.92,25.92,0,0,0-3,12.64A26.31,26.31,0,0,0,574,68.17a21.57,21.57,0,0,0,8.14,8.56,25.41,25.41,0,0,0,24.29,0,21.6,21.6,0,0,0,8.2-8.54,26.06,26.06,0,0,0,3-12.6A26.09,26.09,0,0,0,614.65,43.05Zm-12,22.23Q599.87,69,594.3,69q-5.4,0-8.19-3.63t-2.78-9.8a19.32,19.32,0,0,1,1.17-7,10,10,0,0,1,3.59-4.72,10.59,10.59,0,0,1,6.21-1.7c3.65,0,6.41,1.22,8.26,3.65s2.79,5.7,2.79,9.78A16,16,0,0,1,602.6,65.28Z"/><path class="cls-2" d="M217.85,51.31a19.41,19.41,0,0,0,3.82-12.11A21.59,21.59,0,0,0,220,30.62a15.2,15.2,0,0,0-5.17-6.39,19.79,19.79,0,0,0-9-3.33,22.25,22.25,0,0,0-2.7-.25q-1.5-.06-2.4-.06H174.92v58h11.56V57.82h12.9l10.05,20.74h13.09L211.53,56A14.81,14.81,0,0,0,217.85,51.31ZM186.48,47V31.38h13.77c.6,0,1.25,0,2,.07a12.15,12.15,0,0,1,1.95.29,7.3,7.3,0,0,1,3.62,1.78,6.77,6.77,0,0,1,1.76,2.78,8.86,8.86,0,0,1,0,5.81,6.77,6.77,0,0,1-1.76,2.78,7.3,7.3,0,0,1-3.62,1.78,11.15,11.15,0,0,1-1.95.28c-.71,0-1.36.07-2,.07Z"/><path class="cls-2" d="M316.77,43.14a21.11,21.11,0,0,0-7.59-8.61,20.71,20.71,0,0,0-11.48-3.15c-4.35,0-10.25,3.16-11.84,4.75l0-.94V32.66h-10.2V94.94h11.65v-19c1.22,1.22,6.4,3.92,11,3.92a19.47,19.47,0,0,0,11.09-3.19A21.46,21.46,0,0,0,316.81,68a28,28,0,0,0,2.66-12.37A27.78,27.78,0,0,0,316.77,43.14Zm-10.69,19.5a11,11,0,0,1-3.53,5,9.58,9.58,0,0,1-6.12,1.87,10,10,0,0,1-6.18-1.74,9.58,9.58,0,0,1-3.34-4.89,23.72,23.72,0,0,1-1-7.31,23.72,23.72,0,0,1,1-7.31,9.89,9.89,0,0,1,3.25-4.89A9.25,9.25,0,0,1,296,41.67a10.2,10.2,0,0,1,6.35,1.89A11.13,11.13,0,0,1,306,48.62a19.8,19.8,0,0,1,1.19,7A20.61,20.61,0,0,1,306.08,62.64Z"/></g></g></svg>