<svg xmlns="http://www.w3.org/2000/svg" viewBox="0 0 600 600"><defs><style>.cls-1{fill:#fe3b1f;}.cls-2{fill:#0d0d0d;}.cls-3{fill:#f6f6f6;}</style></defs><title>opengraphRecurso 7</title><g id="Capa_2" data-name="Capa 2"><g id="Capa_1-2" data-name="Capa 1"><rect class="cls-1" width="600" height="600"/><path class="cls-2" d="M176,279.87a20.12,20.12,0,0,0-20.13-20.12H115.68L155.93,300A20.1,20.1,0,0,0,176,279.87Z"/><polygon class="cls-2" points="155.93 300 124.27 300 124.27 331.67 187.61 331.67 155.93 300"/><polygon class="cls-3" points="155.93 300 115.68 259.75 115.68 288.27 115.68 291.41 112.7 291.41 84.01 291.41 124.27 331.67 124.27 303.14 124.27 300 127.24 300 155.93 300"/><path class="cls-3" d="M266.12,284a15.05,15.05,0,0,0-8.56-2.36,16.19,16.19,0,0,0-8.37,2.14,15.06,15.06,0,0,0-5.71,6,19.09,19.09,0,0,0-2.07,9.12,16.86,16.86,0,0,0,2.11,8.5,15.27,15.27,0,0,0,5.86,5.83,17.31,17.31,0,0,0,8.66,2.12,15.71,15.71,0,0,0,8.5-2.43,14.11,14.11,0,0,0,5.7-6.8l-8.05-2.31a6.63,6.63,0,0,1-2.57,3,7.63,7.63,0,0,1-4.06,1,6.82,6.82,0,0,1-5.69-2.44,9.34,9.34,0,0,1-1.8-4.66h22.44a22.15,22.15,0,0,0-1.19-10.09A13.93,13.93,0,0,0,266.12,284Zm-8.2,4.62q3.52,0,5.07,2.14a8.86,8.86,0,0,1,1.37,4H250.29a9,9,0,0,1,1.58-3.65Q253.81,288.58,257.92,288.58Z"/><path class="cls-3" d="M326.54,282.41a13.66,13.66,0,0,0-2.81.5,10.6,10.6,0,0,0-2.52,1.11,8.71,8.71,0,0,0-2.54,2.25,11,11,0,0,0-.89,1.36v-5.15h-7.1v32h8.11V298.11a10,10,0,0,1,.5-3.3,7.19,7.19,0,0,1,1.48-2.55,7.38,7.38,0,0,1,2.39-1.73,9,9,0,0,1,3.19-.81,8.19,8.19,0,0,1,3.09.28v-7.52A14.82,14.82,0,0,0,326.54,282.41Z"/><path class="cls-3" d="M355.14,284a15,15,0,0,0-8.55-2.36,16.2,16.2,0,0,0-8.38,2.14,15.06,15.06,0,0,0-5.71,6,19.09,19.09,0,0,0-2.07,9.12,16.76,16.76,0,0,0,2.12,8.5,15.24,15.24,0,0,0,5.85,5.83,17.31,17.31,0,0,0,8.66,2.12,15.77,15.77,0,0,0,8.51-2.43,14.15,14.15,0,0,0,5.69-6.8l-8.05-2.31a6.63,6.63,0,0,1-2.57,3,7.62,7.62,0,0,1-4.05,1,6.83,6.83,0,0,1-5.7-2.44,9.34,9.34,0,0,1-1.8-4.66h22.44a22.15,22.15,0,0,0-1.19-10.09A13.93,13.93,0,0,0,355.14,284Zm-8.2,4.62q3.53,0,5.07,2.14a8.74,8.74,0,0,1,1.37,4H339.31a9,9,0,0,1,1.58-3.65Q342.83,288.58,346.94,288.58Z"/><polygon class="cls-3" points="364.74 289.47 378.64 289.47 362.96 313.43 362.96 314.44 390.48 314.44 390.48 307.46 375.45 307.46 391.07 283.49 391.07 282.48 364.74 282.48 364.74 289.47"/><path class="cls-3" d="M415.88,284a15,15,0,0,0-8.55-2.36,16.19,16.19,0,0,0-8.37,2.14,15.06,15.06,0,0,0-5.71,6,19.09,19.09,0,0,0-2.07,9.12,16.86,16.86,0,0,0,2.11,8.5,15.27,15.27,0,0,0,5.86,5.83,17.31,17.31,0,0,0,8.66,2.12,15.74,15.74,0,0,0,8.5-2.43,14.11,14.11,0,0,0,5.7-6.8L414,303.79a6.63,6.63,0,0,1-2.57,3,7.63,7.63,0,0,1-4.06,1,6.82,6.82,0,0,1-5.69-2.44,9.34,9.34,0,0,1-1.8-4.66h22.44a22.15,22.15,0,0,0-1.19-10.09A13.88,13.88,0,0,0,415.88,284Zm-8.19,4.62c2.34,0,4,.71,5.07,2.14a9,9,0,0,1,1.37,4H400.06a9,9,0,0,1,1.58-3.65Q403.58,288.58,407.69,288.58Z"/><path class="cls-3" d="M454.93,290.1a13.6,13.6,0,0,0-1.88-4.07,10.14,10.14,0,0,0-3.69-3.22,12.85,12.85,0,0,0-6.12-1.27,13.88,13.88,0,0,0-7.8,2,13.31,13.31,0,0,0-2.56,2.2v-3.3h-7.16v32h8.17V298.22a14.26,14.26,0,0,1,.66-4.79,6.93,6.93,0,0,1,1.71-2.74,5.4,5.4,0,0,1,2.22-1.25,8.17,8.17,0,0,1,2.21-.33,6.09,6.09,0,0,1,4,1.16,6.38,6.38,0,0,1,2,2.87,12.35,12.35,0,0,1,.74,3.41c.08,1.14.12,2.07.12,2.8v15.09h8.17V296.51q0-.79-.12-2.55A21.12,21.12,0,0,0,454.93,290.1Z"/><path class="cls-3" d="M471.1,274.12h-8.05v8.36h-5.44v6.22h5.44v12.19q0,2.87.06,5.13a9.76,9.76,0,0,0,1.24,4.45,7.62,7.62,0,0,0,3.8,3.39,15.52,15.52,0,0,0,5.68,1.13,31.49,31.49,0,0,0,6.5-.55v-6.69a26,26,0,0,1-5.18.24,4,4,0,0,1-3.4-1.84,4.61,4.61,0,0,1-.61-2.38c0-1,0-2.11,0-3.36V288.7h9.23v-6.22H471.1Z"/><path class="cls-3" d="M512,289.72a15.07,15.07,0,0,0-5.7-6,17.62,17.62,0,0,0-16.85,0,15,15,0,0,0-5.71,5.93,19.83,19.83,0,0,0-.05,17.54,15,15,0,0,0,5.67,6,17.66,17.66,0,0,0,16.91,0,15,15,0,0,0,5.71-5.95,19.72,19.72,0,0,0,0-17.51Zm-8.39,15.47a7.69,7.69,0,0,1-11.48.09,10.88,10.88,0,0,1-1.94-6.82,13.53,13.53,0,0,1,.81-4.88,6.93,6.93,0,0,1,2.5-3.28,7.37,7.37,0,0,1,4.32-1.19,6.78,6.78,0,0,1,5.76,2.55,10.94,10.94,0,0,1,1.94,6.8A11.15,11.15,0,0,1,503.56,305.19Z"/><path class="cls-3" d="M235.68,295.47a13.5,13.5,0,0,0,2.67-8.43,15,15,0,0,0-1.16-6,10.69,10.69,0,0,0-3.59-4.45,13.84,13.84,0,0,0-6.26-2.31,16,16,0,0,0-1.88-.18c-.7,0-1.26,0-1.67,0h-18v40.36h8V300h9l7,14.44h9.12l-7.66-15.7A10.23,10.23,0,0,0,235.68,295.47Zm-21.83-3V281.6h9.58c.42,0,.87,0,1.36,0a8.69,8.69,0,0,1,1.36.2,5.15,5.15,0,0,1,2.52,1.24A4.77,4.77,0,0,1,229.9,285a6.17,6.17,0,0,1,0,4,4.77,4.77,0,0,1-1.23,1.94,5.15,5.15,0,0,1-2.52,1.24,8.69,8.69,0,0,1-1.36.2c-.49,0-.94,0-1.36,0Z"/><path class="cls-3" d="M304.55,289.78a14.64,14.64,0,0,0-5.28-6,14.36,14.36,0,0,0-8-2.2A15.16,15.16,0,0,0,283,284.9l0-.65v-1.77H276v43.36h8.11V312.6a13.16,13.16,0,0,0,15.36.51,14.87,14.87,0,0,0,5.16-6,19.51,19.51,0,0,0,1.85-8.61A19.23,19.23,0,0,0,304.55,289.78Zm-7.44,13.58a7.68,7.68,0,0,1-2.45,3.51,6.77,6.77,0,0,1-4.27,1.3,7,7,0,0,1-4.3-1.22,6.65,6.65,0,0,1-2.32-3.4,18.35,18.35,0,0,1,0-10.18A6.8,6.8,0,0,1,286,290a6.42,6.42,0,0,1,4.07-1.21,7.08,7.08,0,0,1,4.42,1.31,7.72,7.72,0,0,1,2.56,3.52,13.83,13.83,0,0,1,.83,4.87A14.35,14.35,0,0,1,297.11,303.36Z"/></g></g></svg>